# xmcd
#
# Track frame offsets:
#	150
#	18552
#	27922
#	37350
#	49282
#	56792
#	69342
#	81390
#	92290
#	118067
#	131090
#	144575
#
# Disc length: 2103
#
# Revision: 3
# Processed by: cddbd v1.5.1PL0 Copyright (c) Steve Scherf et al.
# Submitted via: CDmax 1.8
# Normalized: r1:TDELIM( - ),TSWAP
#
DISCID=af08350c
DTITLE=Various Artist - Soul Lovers
DYEAR=1994
DGENRE=Soul
TTITLE0=Brook Benton - Rainy Night In Georgia
TTITLE1=Gladys Knight - Every Beat Of My Heart
TTITLE2=Al Jarreau - A'int No Sunshine
TTITLE3=Jerry Butler - Make It Easy On Yourself
TTITLE4=Maurice Williams and the Zodiacs - Stay
TTITLE5=The Platters - Only You
TTITLE6=Jerry Butler - Moon River
TTITLE7=The Tymes - Lovers Plea
TTITLE8=George Williams - Lets Make This Love Last Forever
TTITLE9=Percy Sledge - When A Man Loves A Woman
TTITLE10=Ben E King - Stand By Me
TTITLE11=The Drifters - On Broadway
EXTD=
EXTT0=
EXTT1=
EXTT2=
EXTT3=
EXTT4=
EXTT5=
EXTT6=
EXTT7=
EXTT8=
EXTT9=
EXTT10=
EXTT11=
PLAYORDER=
